# xmcd
#
# Track frame offsets:
#	150
#	8321
#	22029
#	34152
#	51793
#	71305
#	87519
#	100283
#	114721
#	130181
#	145647
#	156048
#	164721
#	177585
#	192714
#	206174
#	218592
#	230358
#	243939
#	254430
#	270814
#	281108
#	294857
#	311791
#
# Disc length: 4428 seconds
#
# Revision: 1
# Processed by: cddbd v1.4PL0 Copyright (c) Steve Scherf et al.
# Submitted via: audiograbber 1.80.04
#
DISCID=5c114a18
DTITLE=Elvis Presley - The Country Side Of Elvis CD2
DYEAR=1900
DGENRE=
TTITLE0=Little Cabin On The Hill
TTITLE1=There Goes My Everything
TTITLE2=I Really Don't Want To Know
TTITLE3=Tomorrow Never Comes
TTITLE4=Faded Love
TTITLE5=Make The World Go Away
TTITLE6=Help Me Make It Through The Night
TTITLE7=For The Good Times
TTITLE8=Always On My Mind
TTITLE9=You Gave Me A Mountain
TTITLE10=I'm So Lonesome I Could Cry
TTITLE11=Welcome To My World
TTITLE12=Take Good Care Of Her
TTITLE13=It's Midnight
TTITLE14=You Asked Me To
TTITLE15=Lovin' Arms
TTITLE16=Talk About The Good Times
TTITLE17=There's A Honky Tonk Angel
TTITLE18=Fairytale
TTITLE19=Green, Green Grass Of Home
TTITLE20=Susan When She Tried
TTITLE21=T-R-O-U-B-L-E
TTITLE22=She Thinks I Still Care
TTITLE23=He'll Have To Go
EXTD=
EXTT0=
EXTT1=
EXTT2=
EXTT3=
EXTT4=
EXTT5=
EXTT6=
EXTT7=
EXTT8=
EXTT9=
EXTT10=
EXTT11=
EXTT12=
EXTT13=
EXTT14=
EXTT15=
EXTT16=
EXTT17=
EXTT18=
EXTT19=
EXTT20=
EXTT21=
EXTT22=
EXTT23=
PLAYORDER=
